<svg id="Capa_1" data-name="Capa 1" xmlns="http://www.w3.org/2000/svg" viewBox="0 0 89.01 89.07"><defs><style>.cls-1{fill:#fff;}.cls-2{fill:#f665d1;}.cls-3{fill:#a6f3fc;}.cls-4{fill:#ffd414;}.cls-5{fill:#a29689;}.cls-6{fill:#41dbbb;}</style></defs><path class="cls-1" d="M153.92,133.32a44.36,44.36,0,0,1-44.19-44.77c.07-24.29,20.12-44.34,44.29-44.29a44.53,44.53,0,1,1-.1,89.06Zm-39.31-40.5c2.5-2.89,4.87-5.55,7.16-8.29C127.39,77.8,133,71,140.32,66c8.94-6.07,18-6.5,27.06-.4a57.45,57.45,0,0,1,9.41,7.83c4.79,5,9.18,10.46,13.76,15.7,1,1.16,2.15,2.23,3.48,3.6,1.92-12.55-4-29.18-18.71-38.24a40.28,40.28,0,0,0-45.85,2.54C118.6,65.49,111.38,82.46,114.61,92.82Zm.52,5.32c.84,3.69,1.91,4.22,5.61,2,1.61-1,3.1-2.13,4.65-3.2,5.39-3.7,10.6-7.71,16.22-11a23.6,23.6,0,0,1,18.48-2.68c5.72,1.51,10.66,4.54,15.38,8,3.9,2.85,7.74,5.77,11.68,8.57a6.4,6.4,0,0,0,3.3,1.44,3.62,3.62,0,0,0,2.4-1.79,2.65,2.65,0,0,0-.1-2.51c-3.23-3.55-6.62-7-10-10.42-4.82-5-9.24-10.48-14.53-14.91-10.06-8.42-18.74-8.29-28.59.41-5.55,4.9-10.3,10.72-15.38,16.16C121.35,91.32,118.46,94.51,115.13,98.14Zm3,8.41c.84,1.85,2.71,2.61,5,1.79a44.3,44.3,0,0,0,6.21-2.9c4.67-2.53,9.17-5.38,13.95-7.69a24.3,24.3,0,0,1,21.81,0c4.58,2.16,8.89,4.86,13.39,7.2a58.18,58.18,0,0,0,7.35,3.28,3.42,3.42,0,0,0,4.37-1.67c-3.75-2.42-7.38-4.68-10.92-7.07-4.54-3.07-8.86-6.48-13.54-9.3-7.47-4.52-15.3-4.65-22.82-.15-4.83,2.88-9.28,6.4-14,9.55C125.52,101.89,121.94,104.11,118.16,106.55Zm4.38,7.1c2.18,2.7,5.28,2.68,8.45,1.51,4.07-1.49,8-3.25,12.06-4.85,5.52-2.2,11.22-3.23,17-1.62,3.45,1,6.76,2.41,10.14,3.65,3.07,1.11,6.08,2.44,9.22,3.29s5.16-.21,6.58-2.45c-3.37-1.63-6.83-3.2-10.19-5s-6.8-3.93-10.29-5.73c-6.32-3.26-12.9-4.28-19.61-1.26-3.42,1.55-6.67,3.45-10,5.21C131.51,108.81,127.08,111.21,122.54,113.65Zm6.1,7c2.45.85,4.43,2,6.47,2.12a29.09,29.09,0,0,0,8.26-.74A47.5,47.5,0,0,1,165,122a40.68,40.68,0,0,0,8.26.83,7.19,7.19,0,0,0,5.76-2.48c-4.64-1.87-9.31-3.6-13.85-5.62a25.64,25.64,0,0,0-21.84,0C138.8,116.74,134.12,118.46,128.64,120.66ZM166.91,127c-7.71-2.71-20-2.61-25.1.12A40.19,40.19,0,0,0,166.91,127Z" transform="translate(-109.73 -44.26)"/><path d="M114.61,92.82c-3.23-10.36,4-27.33,14.86-35.75a40.28,40.28,0,0,1,45.85-2.54C190,63.59,196,80.22,194,92.77c-1.33-1.37-2.46-2.44-3.48-3.6-4.58-5.24-9-10.66-13.76-15.7a57.45,57.45,0,0,0-9.41-7.83c-9-6.1-18.12-5.67-27.06.4C133,71,127.39,77.8,121.77,84.53,119.48,87.27,117.11,89.93,114.61,92.82Z" transform="translate(-109.73 -44.26)"/><path class="cls-2" d="M115.13,98.14c3.33-3.63,6.22-6.82,9.16-10,5.08-5.44,9.83-11.26,15.38-16.16,9.85-8.7,18.53-8.83,28.59-.41,5.29,4.43,9.71,9.91,14.53,14.91,3.34,3.46,6.73,6.87,10,10.42a2.65,2.65,0,0,1,.1,2.51,3.62,3.62,0,0,1-2.4,1.79,6.4,6.4,0,0,1-3.3-1.44c-3.94-2.8-7.78-5.72-11.68-8.57-4.72-3.45-9.66-6.48-15.38-8a23.6,23.6,0,0,0-18.48,2.68c-5.62,3.32-10.83,7.33-16.22,11-1.55,1.07-3,2.24-4.65,3.2C117,102.36,116,101.83,115.13,98.14Z" transform="translate(-109.73 -44.26)"/><path class="cls-3" d="M118.16,106.55c3.78-2.44,7.36-4.66,10.85-7,4.67-3.15,9.12-6.67,14-9.55,7.52-4.5,15.35-4.37,22.82.15,4.68,2.82,9,6.23,13.54,9.3,3.54,2.39,7.17,4.65,10.92,7.07a3.42,3.42,0,0,1-4.37,1.67,58.18,58.18,0,0,1-7.35-3.28c-4.5-2.34-8.81-5-13.39-7.2a24.3,24.3,0,0,0-21.81,0c-4.78,2.31-9.28,5.16-13.95,7.69a44.3,44.3,0,0,1-6.21,2.9C120.87,109.16,119,108.4,118.16,106.55Z" transform="translate(-109.73 -44.26)"/><path class="cls-4" d="M122.54,113.65c4.54-2.44,9-4.84,13.42-7.21,3.32-1.76,6.57-3.66,10-5.21,6.71-3,13.29-2,19.61,1.26,3.49,1.8,6.82,3.91,10.29,5.73s6.82,3.33,10.19,5c-1.42,2.24-3.47,3.29-6.58,2.45s-6.15-2.18-9.22-3.29c-3.38-1.24-6.69-2.7-10.14-3.65-5.83-1.61-11.53-.58-17,1.62-4,1.6-8,3.36-12.06,4.85C127.82,116.33,124.72,116.35,122.54,113.65Z" transform="translate(-109.73 -44.26)"/><path class="cls-5" d="M128.64,120.66c5.48-2.2,10.16-3.92,14.7-6a25.64,25.64,0,0,1,21.84,0c4.54,2,9.21,3.75,13.85,5.62a7.19,7.19,0,0,1-5.76,2.48A40.68,40.68,0,0,1,165,122a47.5,47.5,0,0,0-21.64,0,29.09,29.09,0,0,1-8.26.74C133.07,122.65,131.09,121.51,128.64,120.66Z" transform="translate(-109.73 -44.26)"/><path class="cls-6" d="M166.91,127a40.19,40.19,0,0,1-25.1.12C146.9,124.43,159.2,124.33,166.91,127Z" transform="translate(-109.73 -44.26)"/></svg>